# xmcd
#
# Track frame offsets:
#	150
#	24885
#	53494
#	76336
#	100938
#	130009
#	169442
#
# Disc length: 2525 seconds
#
# Revision: 0
# Processed by: cddbd v1.5.2PL0 Copyright (c) Steve Scherf et al.
# Submitted via: dBpowerAMP V4.0
#
DISCID=4a09db07
DTITLE=Los Agentos - Galicja Blues Live
DYEAR=2006
DGENRE=Blues
TTITLE0=No More Doggin'
TTITLE1=Got My Mojo Working
TTITLE2=Marry Had A Little Lamb
TTITLE3=I Shot The Sheriff
TTITLE4=Matchbox
TTITLE5=Alright Now
TTITLE6=Sunshine Of Your Love
EXTD=
EXTT0=
EXTT1=
EXTT2=
EXTT3=
EXTT4=
EXTT5=
EXTT6=
PLAYORDER=
